<svg width="90" height="40" viewBox="0 0 90 40" fill="none" xmlns="http://www.w3.org/2000/svg">
<rect width="90" height="40" fill="white"/>
<path d="M10.7949 15.2988H10.0039V18H8.91406V11.6602H10.0039V14.3438H10.7129L12.8457 11.6602H14.1582L11.6504 14.707L14.3691 18H12.9922L10.7949 15.2988ZM20.0117 12.5391H17.8848V18H16.8008V12.5391H14.7148V11.6602H20.0117V12.5391ZM20.5332 14.7715C20.5332 14.1504 20.6543 13.5918 20.8965 13.0957C21.1426 12.5996 21.4824 12.2168 21.916 11.9473C22.3535 11.6777 22.8516 11.543 23.4102 11.543C24.2734 11.543 24.9707 11.8418 25.502 12.4395C26.0371 13.0371 26.3047 13.832 26.3047 14.8242V14.9004C26.3047 15.5176 26.1855 16.0723 25.9473 16.5645C25.7129 17.0527 25.375 17.4336 24.9336 17.707C24.4961 17.9805 23.9922 18.1172 23.4219 18.1172C22.5625 18.1172 21.8652 17.8184 21.3301 17.2207C20.7988 16.623 20.5332 15.832 20.5332 14.8477V14.7715ZM21.623 14.9004C21.623 15.6035 21.7852 16.168 22.1094 16.5938C22.4375 17.0195 22.875 17.2324 23.4219 17.2324C23.9727 17.2324 24.4102 17.0176 24.7344 16.5879C25.0586 16.1543 25.2207 15.5488 25.2207 14.7715C25.2207 14.0762 25.0547 13.5137 24.7227 13.084C24.3945 12.6504 23.957 12.4336 23.4102 12.4336C22.875 12.4336 22.4434 12.6465 22.1152 13.0723C21.7871 13.498 21.623 14.1074 21.623 14.9004ZM35.8262 18H34.7422V12.5566H31.8242V18H30.7344V11.6602H35.8262V18ZM42.9219 14.9004C42.9219 15.8652 42.7012 16.6426 42.2598 17.2324C41.8184 17.8223 41.2207 18.1172 40.4668 18.1172C39.6973 18.1172 39.0918 17.873 38.6504 17.3848V20.4375H37.5664V11.6602H38.5566L38.6094 12.3633C39.0508 11.8164 39.6641 11.543 40.4492 11.543C41.2109 11.543 41.8125 11.8301 42.2539 12.4043C42.6992 12.9785 42.9219 13.7773 42.9219 14.8008V14.9004ZM41.8379 14.7773C41.8379 14.0625 41.6855 13.498 41.3809 13.084C41.0762 12.6699 40.6582 12.4629 40.127 12.4629C39.4707 12.4629 38.9785 12.7539 38.6504 13.3359V16.3652C38.9746 16.9434 39.4707 17.2324 40.1387 17.2324C40.6582 17.2324 41.0703 17.0273 41.375 16.6172C41.6836 16.2031 41.8379 15.5898 41.8379 14.7773ZM44.0176 14.7715C44.0176 14.1504 44.1387 13.5918 44.3809 13.0957C44.627 12.5996 44.9668 12.2168 45.4004 11.9473C45.8379 11.6777 46.3359 11.543 46.8945 11.543C47.7578 11.543 48.4551 11.8418 48.9863 12.4395C49.5215 13.0371 49.7891 13.832 49.7891 14.8242V14.9004C49.7891 15.5176 49.6699 16.0723 49.4316 16.5645C49.1973 17.0527 48.8594 17.4336 48.418 17.707C47.9805 17.9805 47.4766 18.1172 46.9062 18.1172C46.0469 18.1172 45.3496 17.8184 44.8145 17.2207C44.2832 16.623 44.0176 15.832 44.0176 14.8477V14.7715ZM45.1074 14.9004C45.1074 15.6035 45.2695 16.168 45.5938 16.5938C45.9219 17.0195 46.3594 17.2324 46.9062 17.2324C47.457 17.2324 47.8945 17.0176 48.2188 16.5879C48.543 16.1543 48.7051 15.5488 48.7051 14.7715C48.7051 14.0762 48.5391 13.5137 48.207 13.084C47.8789 12.6504 47.4414 12.4336 46.8945 12.4336C46.3594 12.4336 45.9277 12.6465 45.5996 13.0723C45.2715 13.498 45.1074 14.1074 45.1074 14.9004ZM55.9355 18H54.8457V15.7031C54.3691 15.8281 53.8809 15.8906 53.3809 15.8906C52.5879 15.8906 51.9824 15.6875 51.5645 15.2812C51.1504 14.875 50.9395 14.2969 50.9316 13.5469V11.6543H52.0156V13.582C52.0352 14.5273 52.4902 15 53.3809 15C53.8809 15 54.3691 14.9375 54.8457 14.8125V11.6602H55.9355V18ZM61.7773 11.6602H62.8613V18H61.7773V13.377L58.8535 18H57.7695V11.6602H58.8535V16.2891L61.7773 11.6602ZM69.3125 12.5391H67.1855V18H66.1016V12.5391H64.0156V11.6602H69.3125V12.5391ZM74.1875 18C74.125 17.875 74.0742 17.6523 74.0352 17.332C73.5312 17.8555 72.9297 18.1172 72.2305 18.1172C71.6055 18.1172 71.0918 17.9414 70.6895 17.5898C70.291 17.2344 70.0918 16.7852 70.0918 16.2422C70.0918 15.582 70.3418 15.0703 70.8418 14.707C71.3457 14.3398 72.0527 14.1562 72.9629 14.1562H74.0176V13.6582C74.0176 13.2793 73.9043 12.9785 73.6777 12.7559C73.4512 12.5293 73.1172 12.416 72.6758 12.416C72.2891 12.416 71.9648 12.5137 71.7031 12.709C71.4414 12.9043 71.3105 13.1406 71.3105 13.418H70.2207C70.2207 13.1016 70.332 12.7969 70.5547 12.5039C70.7812 12.207 71.0859 11.9727 71.4688 11.8008C71.8555 11.6289 72.2793 11.543 72.7402 11.543C73.4707 11.543 74.043 11.7266 74.457 12.0938C74.8711 12.457 75.0859 12.959 75.1016 13.5996V16.5176C75.1016 17.0996 75.1758 17.5625 75.3242 17.9062V18H74.1875ZM72.3887 17.1738C72.7285 17.1738 73.0508 17.0859 73.3555 16.9102C73.6602 16.7344 73.8809 16.5059 74.0176 16.2246V14.9238H73.168C71.8398 14.9238 71.1758 15.3125 71.1758 16.0898C71.1758 16.4297 71.2891 16.6953 71.5156 16.8867C71.7422 17.0781 72.0332 17.1738 72.3887 17.1738ZM81.998 11.6602V18H80.9082V12.5566H78.752L78.623 14.9297C78.5527 16.0195 78.3691 16.7988 78.0723 17.2676C77.7793 17.7363 77.3125 17.9805 76.6719 18H76.2383V17.0449L76.5488 17.0215C76.9004 16.9824 77.1523 16.7793 77.3047 16.4121C77.457 16.0449 77.5547 15.3652 77.5977 14.373L77.7148 11.6602H81.998ZM13.5312 26.5391H11.4043V32H10.3203V26.5391H8.23438V25.6602H13.5312V26.5391ZM14.0527 28.7715C14.0527 28.1504 14.1738 27.5918 14.416 27.0957C14.6621 26.5996 15.002 26.2168 15.4355 25.9473C15.873 25.6777 16.3711 25.543 16.9297 25.543C17.793 25.543 18.4902 25.8418 19.0215 26.4395C19.5566 27.0371 19.8242 27.832 19.8242 28.8242V28.9004C19.8242 29.5176 19.7051 30.0723 19.4668 30.5645C19.2324 31.0527 18.8945 31.4336 18.4531 31.707C18.0156 31.9805 17.5117 32.1172 16.9414 32.1172C16.082 32.1172 15.3848 31.8184 14.8496 31.2207C14.3184 30.623 14.0527 29.832 14.0527 28.8477V28.7715ZM15.1426 28.9004C15.1426 29.6035 15.3047 30.168 15.6289 30.5938C15.957 31.0195 16.3945 31.2324 16.9414 31.2324C17.4922 31.2324 17.9297 31.0176 18.2539 30.5879C18.5781 30.1543 18.7402 29.5488 18.7402 28.7715C18.7402 28.0762 18.5742 27.5137 18.2422 27.084C17.9141 26.6504 17.4766 26.4336 16.9297 26.4336C16.3945 26.4336 15.9629 26.6465 15.6348 27.0723C15.3066 27.498 15.1426 28.1074 15.1426 28.9004ZM25.7656 26.5391H23.6387V32H22.5547V26.5391H20.4688V25.6602H25.7656V26.5391ZM34.9824 32H33.8984V26.5566H30.9805V32H29.8906V25.6602H34.9824V32ZM42.0781 28.9004C42.0781 29.8652 41.8574 30.6426 41.416 31.2324C40.9746 31.8223 40.377 32.1172 39.623 32.1172C38.8535 32.1172 38.248 31.873 37.8066 31.3848V34.4375H36.7227V25.6602H37.7129L37.7656 26.3633C38.207 25.8164 38.8203 25.543 39.6055 25.543C40.3672 25.543 40.9688 25.8301 41.4102 26.4043C41.8555 26.9785 42.0781 27.7773 42.0781 28.8008V28.9004ZM40.9941 28.7773C40.9941 28.0625 40.8418 27.498 40.5371 27.084C40.2324 26.6699 39.8145 26.4629 39.2832 26.4629C38.627 26.4629 38.1348 26.7539 37.8066 27.3359V30.3652C38.1309 30.9434 38.627 31.2324 39.2949 31.2324C39.8145 31.2324 40.2266 31.0273 40.5312 30.6172C40.8398 30.2031 40.9941 29.5898 40.9941 28.7773ZM43.1738 28.7715C43.1738 28.1504 43.2949 27.5918 43.5371 27.0957C43.7832 26.5996 44.123 26.2168 44.5566 25.9473C44.9941 25.6777 45.4922 25.543 46.0508 25.543C46.9141 25.543 47.6113 25.8418 48.1426 26.4395C48.6777 27.0371 48.9453 27.832 48.9453 28.8242V28.9004C48.9453 29.5176 48.8262 30.0723 48.5879 30.5645C48.3535 31.0527 48.0156 31.4336 47.5742 31.707C47.1367 31.9805 46.6328 32.1172 46.0625 32.1172C45.2031 32.1172 44.5059 31.8184 43.9707 31.2207C43.4395 30.623 43.1738 29.832 43.1738 28.8477V28.7715ZM44.2637 28.9004C44.2637 29.6035 44.4258 30.168 44.75 30.5938C45.0781 31.0195 45.5156 31.2324 46.0625 31.2324C46.6133 31.2324 47.0508 31.0176 47.375 30.5879C47.6992 30.1543 47.8613 29.5488 47.8613 28.7715C47.8613 28.0762 47.6953 27.5137 47.3633 27.084C47.0352 26.6504 46.5977 26.4336 46.0508 26.4336C45.5156 26.4336 45.084 26.6465 44.7559 27.0723C44.4277 27.498 44.2637 28.1074 44.2637 28.9004ZM55.0918 32H54.002V29.7031C53.5254 29.8281 53.0371 29.8906 52.5371 29.8906C51.7441 29.8906 51.1387 29.6875 50.7207 29.2812C50.3066 28.875 50.0957 28.2969 50.0879 27.5469V25.6543H51.1719V27.582C51.1914 28.5273 51.6465 29 52.5371 29C53.0371 29 53.5254 28.9375 54.002 28.8125V25.6602H55.0918V32ZM60.9336 25.6602H62.0176V32H60.9336V27.377L58.0098 32H56.9258V25.6602H58.0098V30.2891L60.9336 25.6602ZM68.4688 26.5391H66.3418V32H65.2578V26.5391H63.1719V25.6602H68.4688V26.5391ZM73.3438 32C73.2812 31.875 73.2305 31.6523 73.1914 31.332C72.6875 31.8555 72.0859 32.1172 71.3867 32.1172C70.7617 32.1172 70.248 31.9414 69.8457 31.5898C69.4473 31.2344 69.248 30.7852 69.248 30.2422C69.248 29.582 69.498 29.0703 69.998 28.707C70.502 28.3398 71.209 28.1562 72.1191 28.1562H73.1738V27.6582C73.1738 27.2793 73.0605 26.9785 72.834 26.7559C72.6074 26.5293 72.2734 26.416 71.832 26.416C71.4453 26.416 71.1211 26.5137 70.8594 26.709C70.5977 26.9043 70.4668 27.1406 70.4668 27.418H69.377C69.377 27.1016 69.4883 26.7969 69.7109 26.5039C69.9375 26.207 70.2422 25.9727 70.625 25.8008C71.0117 25.6289 71.4355 25.543 71.8965 25.543C72.627 25.543 73.1992 25.7266 73.6133 26.0938C74.0273 26.457 74.2422 26.959 74.2578 27.5996V30.5176C74.2578 31.0996 74.332 31.5625 74.4805 31.9062V32H73.3438ZM71.5449 31.1738C71.8848 31.1738 72.207 31.0859 72.5117 30.9102C72.8164 30.7344 73.0371 30.5059 73.1738 30.2246V28.9238H72.3242C70.9961 28.9238 70.332 29.3125 70.332 30.0898C70.332 30.4297 70.4453 30.6953 70.6719 30.8867C70.8984 31.0781 71.1895 31.1738 71.5449 31.1738ZM81.1543 25.6602V32H80.0645V26.5566H77.9082L77.7793 28.9297C77.709 30.0195 77.5254 30.7988 77.2285 31.2676C76.9355 31.7363 76.4688 31.9805 75.8281 32H75.3945V31.0449L75.7051 31.0215C76.0566 30.9824 76.3086 30.7793 76.4609 30.4121C76.6133 30.0449 76.7109 29.3652 76.7539 28.373L76.8711 25.6602H81.1543Z" fill="black"/>
</svg>
